# xmcd CD database file
#
# Track frame offsets:
#	180
#	10938
#	23341
#	54274
#	95368
#	108565
#	133447
#	152148
#	167533
#	183873
#	194812
#	206137
#	225191
#	281606
#	301794
#
# Disc length: 4125 seconds
#
# Revision: 2
# Processed by: cddbd v1.4b41PL1 Copyright (c) Steve Scherf et al.
# Submitted via: Feurio! 1.50.2ß - http://www.feurio.com
#
DISCID=bf101b0f
DTITLE=Bluebyrds - Saw the Light
DYEAR=1900
DGENRE=
TTITLE0=Song for Ana
TTITLE1=Traveling Man
TTITLE2=Tonight
TTITLE3=Saw the Light
TTITLE4=I can't say
TTITLE5=Have you heard the News
TTITLE6=Dead Men don't wear Condoms
TTITLE7=Taxi Driver
TTITLE8=Going to the Ocean
TTITLE9=Tell me Why
TTITLE10=Gonna have some Fun tonight
TTITLE11=Trouble Late at Night
TTITLE12=Going down Blues
TTITLE13=Rock and Roll ain't Noise Pollution
TTITLE14=Do it Part 1 (Bonustrack)
EXTD=Klatsch
EXTT0=
EXTT1=
EXTT2=
EXTT3=
EXTT4=
EXTT5=
EXTT6=
EXTT7=
EXTT8=
EXTT9=
EXTT10=
EXTT11=
EXTT12=
EXTT13=
EXTT14=
PLAYORDER=
